<?xml version="1.0" standalone="no"?>
<!DOCTYPE svg PUBLIC "-//W3C//DTD SVG 20010904//EN"
 "http://www.w3.org/TR/2001/REC-SVG-20010904/DTD/svg10.dtd">
<svg version="1.0" xmlns="http://www.w3.org/2000/svg"
 width="512.000000pt" height="512.000000pt" viewBox="0 0 512.000000 512.000000"
 preserveAspectRatio="xMidYMid meet">
<metadata>
Created by potrace 1.11, written by Peter Selinger 2001-2013
</metadata>
<g transform="translate(0.000000,512.000000) scale(0.100000,-0.100000)"
fill="#000000" stroke="none">
<path d="M2192 5110 c-107 -22 -142 -70 -142 -196 0 -139 78 -374 263 -794
110 -251 277 -600 287 -600 7 0 297 587 358 725 67 153 149 365 183 475 25 82
32 125 33 195 1 80 -2 94 -23 124 -13 18 -45 43 -70 55 -44 20 -61 21 -446 23
-220 1 -420 -3 -443 -7z"/>
<path d="M3757 4715 c-10 -57 -42 -104 -85 -122 -23 -10 -78 -18 -145 -21 -95
-4 -107 -7 -101 -21 3 -9 29 -77 56 -151 59 -157 67 -223 44 -323 -31 -132
-41 -144 -437 -542 l-369 -371 0 -1582 0 -1582 463 0 462 0 50 24 c28 13 63
37 78 55 57 68 64 -30 -123 1659 -171 1549 -171 1552 -153 1589 35 71 110 100
177 68 72 -34 67 -10 155 -805 45 -399 81 -731 81 -737 0 -17 331 -18 398 -1
134 33 212 144 199 282 -10 99 -474 2221 -501 2287 -38 95 -85 166 -167 253
l-76 80 -6 -39z"/>
<path d="M1329 4627 c-48 -59 -90 -127 -124 -200 -27 -55 -98 -322 -311 -1162
-308 -1213 -306 -1202 -254 -1295 33 -58 96 -105 160 -119 75 -16 450 -15 450
2 -1 56 194 1420 207 1450 55 127 253 85 253 -53 0 -20 -92 -707 -205 -1528
-113 -820 -205 -1511 -205 -1533 0 -59 39 -122 98 -156 l47 -28 508 -3 507 -3
0 1581 0 1580 -326 355 c-180 195 -339 371 -354 393 -57 76 -74 136 -74 257 0
116 0 117 109 388 7 16 -4 17 -133 17 -178 0 -236 12 -280 56 -19 19 -37 34
-40 33 -4 0 -19 -15 -33 -32z"/>
</g>
</svg>
